<?xml version="1.0" encoding="UTF-8"?>
<svg width="1791px" height="819px" viewBox="0 0 1791 819" version="1.1" xmlns="http://www.w3.org/2000/svg" xmlns:xlink="http://www.w3.org/1999/xlink">
	<title>
		bg_gradient
	</title>
	<defs>
		<linearGradient x1="3.07262706%" y1="51.9341718%" x2="201.216569%" y2="43.9907519%" id="linearGradient-1">
			<stop stop-color="#A864D5" offset="0%">
			</stop>
			<stop stop-color="#4D2372" offset="4.65584984%">
			</stop>
			<stop stop-color="#5673ED" offset="56.013569%">
			</stop>
			<stop stop-color="#57BEF8" offset="100%">
			</stop>
		</linearGradient>
		<linearGradient x1="76.7333326%" y1="47.3939339%" x2="2.0912428%" y2="47.8621732%" id="linearGradient-2">
			<stop stop-color="#4D2372" offset="0%">
			</stop>
			<stop stop-color="#3E33C2" offset="100%">
			</stop>
		</linearGradient>
	</defs>
	<g id="Page-1" stroke="none" stroke-width="1" fill="none" fill-rule="evenodd">
		<g id="bg_gradient" fill-rule="nonzero">
			<g id="mountain4" transform="translate(898.000000, 262.000000) scale(-1, 1) translate(-898.000000, -262.000000) translate(5.000000, 0.000000)" fill="url(#linearGradient-1)">
				<path d="M1253.25507,82.9160755 C1349.1749,41.8888139 1688.15578,-37.7829827 1786,20.7535475 L1786,524 L0,524 C0,524 155.840238,335.685968 291.645023,255.825655 C482.851133,143.386418 654.349691,68.4115123 853.419577,117.105117 C1052.49071,165.79895 1133.36278,134.199809 1253.25507,82.9160755 Z" id="Path">
				</path>
			</g>
			<g id="mountain5" transform="translate(5.000000, 0.000000)" fill="url(#linearGradient-2)">
				<path d="M1570.1373,642.504985 C1345.04268,699.764896 1239.72318,637.365649 1143.54169,596.344326 C1000.51058,535.339551 938.220285,512.991149 731.712488,596.344326 C525.204691,679.697502 303.129227,724.694958 124.575601,642.504985 C-5.48396972,582.637717 7.9195891,388.965267 7.9195891,388.965267 C-20.9285586,314.432904 22.3546595,198.80898 249.514372,179.964748 C479.774814,160.86355 561.111414,265.621204 761.676919,265.621204 C1002.28862,265.621204 1126.61829,143.295312 1344.03079,57.1778579 C1573.25559,-33.6170774 1785.93903,10.9244338 1785.93903,10.9244338 L1785.93903,478.046234 C1785.93903,478.046234 1795.64494,585.140573 1570.1373,642.504985 Z" id="Path">
				</path>
			</g>
			<g id="hero-wave-d" transform="translate(0.000000, 189.000000)" fill="#1F1144">
				<path d="M1243.10945,239.293742 C996.610827,157.400688 993.039692,124.070666 795.544261,145.67468 C598.04883,167.278694 556.665139,25.839701 365.091096,7.2935688 C173.517053,-11.2525234 94.1024608,9.11699 2.4523025,28.8977031 C2.4523025,116.068661 0,630 0,630 L1791,630 L1791,164.328692 C1791,164.328692 1490.05403,321.336796 1243.10945,239.293742 Z" id="Path">
				</path>
			</g>
		</g>
	</g>
</svg>
